<?xml version="1.0" standalone="no"?>
<!DOCTYPE svg PUBLIC "-//W3C//DTD SVG 20010904//EN"
 "http://www.w3.org/TR/2001/REC-SVG-20010904/DTD/svg10.dtd">
<svg version="1.0" xmlns="http://www.w3.org/2000/svg"
 width="700.000000pt" height="700.000000pt" viewBox="0 0 700.000000 700.000000"
 preserveAspectRatio="xMidYMid meet">
<metadata>
Created by potrace 1.14, written by Peter Selinger 2001-2017
</metadata>
<g transform="translate(0.000000,700.000000) scale(0.100000,-0.100000)"
fill="#000000" stroke="none">
<path d="M792 3549 l3 -3451 645 0 c355 0 662 1 682 1 37 1 37 2 35 39 -2 20
0 49 4 65 4 15 5 27 1 27 -8 0 -8 187 0 196 4 3 3 18 -1 32 -5 15 -5 36 -1 47
4 11 4 29 0 41 -16 42 5 43 50 3 59 -52 59 -52 111 -85 24 -16 50 -34 57 -41
17 -17 163 -103 252 -150 82 -43 233 -108 330 -142 57 -20 274 -78 316 -85 22
-3 62 -10 89 -15 144 -26 502 -36 645 -17 36 4 76 9 90 11 28 3 104 15 135 22
11 2 31 6 45 9 96 19 314 88 425 135 17 7 32 13 35 14 13 4 182 89 230 116 96
54 267 171 327 224 6 5 33 28 59 50 226 189 445 469 590 755 58 116 131 288
139 331 2 10 9 27 15 38 6 12 8 21 6 21 -3 0 -1 12 5 28 6 15 12 34 14 42 2 8
11 47 20 85 9 39 19 81 21 95 2 14 6 34 9 46 2 11 7 45 11 75 3 30 8 65 11 79
8 36 13 462 6 474 -4 5 -8 33 -9 62 -2 28 -10 91 -19 140 -9 49 -18 98 -20
109 -2 11 -7 31 -10 45 -4 14 -9 36 -12 50 -2 14 -6 30 -8 35 -1 6 -3 13 -4
18 0 4 -7 23 -15 42 -9 20 -15 36 -14 38 2 3 -21 77 -32 102 -4 11 -15 36 -24
57 -9 20 -16 38 -16 41 0 13 -94 204 -114 232 -11 17 -20 32 -20 35 2 8 -151
247 -166 260 -3 3 -13 15 -21 27 -45 66 -231 263 -334 353 -101 89 -312 240
-335 240 -5 0 -10 4 -10 9 0 10 -320 171 -341 171 -8 0 -19 4 -24 8 -16 14
-206 76 -305 100 -121 29 -115 28 -240 48 -102 17 -201 23 -360 23 -161 0
-205 -3 -360 -24 -41 -5 -130 -22 -155 -29 -5 -2 -28 -7 -50 -11 -22 -5 -42
-10 -45 -10 -37 -9 -117 -34 -210 -67 -269 -96 -509 -233 -743 -424 -25 -20
-27 -18 -27 29 0 23 -1 56 -3 72 -1 17 1 45 4 63 4 17 4 32 0 32 -4 0 -4 27
-1 60 3 33 3 60 0 60 -6 0 -3 125 4 153 2 9 1 17 -2 17 -7 0 -5 112 2 143 2 9
1 17 -2 17 -9 0 -6 145 2 159 4 6 4 16 0 22 -8 14 -8 145 1 159 3 5 1 10 -5
10 -6 0 -9 4 -5 10 6 9 7 157 2 215 -1 17 1 45 4 63 4 17 4 32 0 32 -3 0 -4
29 -1 65 3 36 3 65 0 65 -6 0 -3 115 4 143 2 9 1 17 -2 17 -4 0 -6 19 -4 42 1
24 3 50 3 58 -2 124 -1 151 4 160 3 5 2 10 -2 10 -5 0 -6 27 -3 61 3 33 3 62
0 64 -7 4 -3 82 5 103 2 6 1 12 -3 12 -4 0 -5 27 -2 60 3 33 3 60 0 60 -6 0
-3 125 4 153 2 9 1 17 -2 17 -7 0 -5 112 2 143 2 9 1 17 -2 17 -4 0 -6 20 -5
45 l2 45 -685 0 -684 0 2 -3451z"/>
</g>
</svg>
