<svg xmlns="http://www.w3.org/2000/svg" viewBox="0 0 1051.41 176.09"><defs><style>.cls-1{fill:#ffde31;}</style></defs><g id="Layer_2" data-name="Layer 2"><g id="Layer_1-2" data-name="Layer 1"><path d="M186.83,74.53V56.32H154.15V173.06h33.38V103c3-11,12.14-17.27,26.62-17.27,6.3,0,11.21,1.16,16.11,4h.93V56.79c-3.5-2.34-8.17-3.27-14-3.27C199.91,53.52,189.63,65,186.83,74.53Z"/><path d="M302,53.05c-32.45,0-61.17,22.65-61.17,62.1,0,36.89,24.75,60.94,64.21,60.94,18,0,35.49-4.9,46.22-12.84V134.53h-.93c-11.9,9.34-26.15,13.08-40.62,13.08-21.25,0-31.76-9.11-35-22.42h81.25c.46-4.2.7-11.2.7-15.41C356.14,74.53,336.76,53.05,302,53.05Zm23.58,49.26H274.89C277,86.9,290.77,79.9,301.5,79.9c14.25,0,24.05,8.87,24.05,21Z"/><path d="M474.69,141.3c-.93-2.56-1.17-8.4-1.17-16.11,0-7.93.24-18.21.24-26.85,0-18.21-4.21-28-12.14-34.78-7-6.31-19.38-10.51-35.49-10.51-14.71,0-33.86,4.2-47.4,13.77V95.07h.94c12.37-10.27,29.65-13.3,39.45-13.3,8.18,0,14.25,2.1,17.75,5.6,2.8,3,4,6.3,4,11.44v4.44c-3.51-.94-10-1.4-14-1.4-12.37,0-21.71.7-33.39,4.67-11.44,4-23.81,13.54-23.81,32.92,0,22.64,16.81,36.65,41.56,36.65,14.47,0,26.14-4.2,33.62-15.18,3.73,9.11,13.54,14.25,26.38,14.25,7.24,0,14.48-1.64,18.44-3.74V144.57a18.9,18.9,0,0,1-7.7,1.64C478,146.21,475.63,144.34,474.69,141.3Zm-55.8,10c-10.5,0-16.58-4.67-16.58-12.6,0-6.08,4.44-9.81,10-11.45,5.84-1.86,11-1.86,17-1.86a83.69,83.69,0,0,1,11.44.93c0,10.27,0,11.21.23,14.71C435.94,147.84,426.59,151.34,418.89,151.34Z"/><polygon points="619.25 56.32 579.55 56.32 540.1 97.64 540.1 3.08 506.71 3.08 506.71 173.06 540.1 173.06 540.1 136.17 555.51 120.76 585.39 173.06 623.45 173.06 577.92 98.11 619.25 56.32"/><path d="M661.07,12.66c-6.31,6.3-10.74,16.58-10.74,33.85v9.81H633.75V82.93h16.58v90.13h33.39V82.93H709.4V56.32H683.72V49.55c0-7,1.4-12.38,4-15.41,3-3.51,8.17-5.14,14.47-5.14a30.35,30.35,0,0,1,15.64,4.44h.94V5.19C714.07,2.38,705,.28,697.26.28,679.28.28,668.54,5.19,661.07,12.66Z"/><path d="M827.8,141.3c-.93-2.56-1.16-8.4-1.16-16.11,0-7.93.23-18.21.23-26.85,0-18.21-4.2-28-12.14-34.78-7-6.31-19.38-10.51-35.49-10.51-14.71,0-33.85,4.2-47.39,13.77V95.07h.93c12.38-10.27,29.65-13.3,39.46-13.3,8.17,0,14.24,2.1,17.74,5.6,2.8,3,4,6.3,4,11.44v4.44c-3.5-.94-10-1.4-14-1.4-12.37,0-21.71.7-33.38,4.67-11.44,4-23.82,13.54-23.82,32.92,0,22.64,16.81,36.65,41.56,36.65,14.48,0,26.15-4.2,33.62-15.18,3.74,9.11,13.54,14.25,26.38,14.25,7.24,0,14.48-1.64,18.45-3.74V144.57a18.94,18.94,0,0,1-7.71,1.64C831.07,146.21,828.74,144.34,827.8,141.3Zm-55.8,10c-10.5,0-16.57-4.67-16.57-12.6,0-6.08,4.44-9.81,10-11.45,5.83-1.86,11-1.86,17-1.86a83.43,83.43,0,0,1,11.44.93c0,10.27,0,11.21.24,14.71C789.05,147.84,779.71,151.34,772,151.34Z"/><path d="M922,103.25,906.15,99C896.58,96.48,894,93.21,894,89.47c0-4.9,4.67-8.17,16.11-8.17s29,4.44,37.82,11.91h.93V62.62c-6.53-5.6-25.44-9.34-37.82-9.34-33.62,0-50.66,15-50.66,37.59,0,19.15,9.1,28.49,31.28,34.56l14.71,4.2c12.14,3.5,15.18,6.3,15.18,11,0,5.37-3.74,7.71-16.11,7.71-12.61,0-32.69-5.37-45.06-15.88h-.94v31.29c9.34,7.47,28.49,12.37,46,12.37,36.65,0,50-17.74,50-37.12C955.41,122.39,948.41,110,922,103.25Z"/><path d="M1050.47,143.64c-4.44,2.57-10.51,3.73-15.41,3.73-6.07,0-10.27-2.1-12.14-4.9s-2.57-7-2.57-13.54v-46h27.09V56.32h-27.09V23.86h-32C987,54,987,56.32,987,56.32H970.39V82.93h16.34V134.3c0,13.31,2.34,23.11,7.71,29.88s15.87,11.44,29.18,11.44c8.64,0,21.48-1.63,27.79-5.6V143.64Z"/><path d="M74.34,52.34a61.27,61.27,0,0,0-40,14.81V0H0V173H34.31V160.67a61.56,61.56,0,1,0,40-108.33Zm0,91.92a30.35,30.35,0,1,1,30.35-30.35A30.35,30.35,0,0,1,74.34,144.26Z"/><circle class="cls-1" cx="74.34" cy="113.91" r="30.35"/></g></g></svg>