<svg xmlns="http://www.w3.org/2000/svg" width="62.017" height="62.017" viewBox="0 0 62.017 62.017">
  <g id="Icon_ionic-logo-instagram" data-name="Icon ionic-logo-instagram" transform="translate(-4.5 -4.5)">
    <path id="Path_45" data-name="Path 45" d="M48.429,9.668a12.958,12.958,0,0,1,12.92,12.92v25.84a12.958,12.958,0,0,1-12.92,12.92H22.588a12.958,12.958,0,0,1-12.92-12.92V22.588a12.958,12.958,0,0,1,12.92-12.92h25.84m0-5.168H22.588A18.141,18.141,0,0,0,4.5,22.588v25.84A18.141,18.141,0,0,0,22.588,66.517h25.84A18.141,18.141,0,0,0,66.517,48.429V22.588A18.141,18.141,0,0,0,48.429,4.5Z" fill="#fff"/>
    <path id="Path_46" data-name="Path 46" d="M27.5,16.752a3.876,3.876,0,1,1,3.876-3.876A3.867,3.867,0,0,1,27.5,16.752Z" transform="translate(24.804 5.836)" fill="#fff"/>
    <path id="Path_47" data-name="Path 47" d="M26.754,16.418A10.336,10.336,0,1,1,16.418,26.754,10.346,10.346,0,0,1,26.754,16.418m0-5.168a15.5,15.5,0,1,0,15.5,15.5,15.508,15.508,0,0,0-15.5-15.5Z" transform="translate(8.754 8.754)" fill="#fff"/>
  </g>
</svg>
