<svg xmlns="http://www.w3.org/2000/svg" width="55.647" height="56.789" viewBox="0 0 55.647 56.789">
  <path id="Icon_awesome-linkedin" data-name="Icon awesome-linkedin" d="M51.673,2.25H3.962A4.035,4.035,0,0,0,0,6.344v48.6a4.035,4.035,0,0,0,3.962,4.094h47.71a4.045,4.045,0,0,0,3.975-4.094V6.344A4.045,4.045,0,0,0,51.673,2.25ZM16.818,50.927H8.571v-27.1h8.26v27.1Zm-4.124-30.8a4.881,4.881,0,1,1,4.782-4.88,4.834,4.834,0,0,1-4.782,4.88Zm35.041,30.8H39.487V37.743c0-3.144-.062-7.187-4.285-7.187-4.3,0-4.956,3.423-4.956,6.959V50.927H22v-27.1h7.912v3.7h.112a8.657,8.657,0,0,1,7.813-4.373c8.347,0,9.9,5.616,9.9,12.917Z" transform="translate(0 -2.25)" fill="#fff"/>
</svg>
