<svg xmlns="http://www.w3.org/2000/svg" width="65.875" height="56.514" viewBox="0 0 65.875 56.514">
  <path id="Icon_ionic-logo-vimeo" data-name="Icon ionic-logo-vimeo" d="M67.676,11.855A8.381,8.381,0,0,0,61.7,5.046a17.06,17.06,0,0,0-13.84,2.471c-4.4,3.206-7,8.78-7.913,12.325a11.109,11.109,0,0,1,5.736-1.015,3.749,3.749,0,0,1,3.662,3.721,10.244,10.244,0,0,1-.529,4.074,43.074,43.074,0,0,1-7,11.884,10.59,10.59,0,0,1-1.471,1.456c-1.5,1.221-2.765.9-3.736-.765a20.6,20.6,0,0,1-1.794-4.28c-1.824-5.839-2.471-11.9-3.5-17.884-.485-2.868-1.03-5.854-2.647-8.369a7.091,7.091,0,0,0-7.354-3.236c-2.162.265-5.427,2.574-7.03,3.883,0,0-8.236,6.9-12.031,10.5l3.118,3.971s2.633-1.838,4.045-2.691a2.092,2.092,0,0,1,2.53.029,8.059,8.059,0,0,1,1.809,2.074,28.013,28.013,0,0,1,2.162,4.912c1.941,6.515,3.75,13.046,5.559,19.605A28.058,28.058,0,0,0,25.6,57.066c2.839,3.912,5.824,4.809,10.428,3.162,3.736-1.338,6.854-3.853,9.707-6.457,4.868-4.442,8.692-9.619,12.575-14.884a69.2,69.2,0,0,0,7.56-12.8A22.682,22.682,0,0,0,67.676,11.855Z" transform="translate(-2.257 -4.499)" fill="#fff"/>
</svg>
